<?xml version="1.0" encoding="UTF-8"?>
<svg width="141px" height="43px" viewBox="0 0 141 43" version="1.1" xmlns="http://www.w3.org/2000/svg" xmlns:xlink="http://www.w3.org/1999/xlink">
    <!-- Generator: Sketch 56.3 (81716) - https://sketch.com -->
    <title>silver copy</title>
    <desc>Created with Sketch.</desc>
    <g id="Fall-2019-Launch" stroke="none" stroke-width="1" fill="none" fill-rule="evenodd">
        <g id="clp-1366" transform="translate(-1037.000000, -2132.000000)" fill="#333333">
            <g id="module-3-compare" transform="translate(0.000000, 1730.000000)">
                <g id="4-Cameras" transform="translate(193.000000, 181.000000)">
                    <g id="hero7silver" transform="translate(806.000000, 47.000000)">
                        <g id="logo-H7S" transform="translate(38.000000, 174.000000)">
                            <polygon id="Fill-1" points="20.1474 0.00616595745 20.1474 8.95216596 4.22846667 8.95216596 4.22846667 0.00616595745 -0.000466666667 0.00616595745 -0.000466666667 21.846166 4.22846667 21.846166 4.22846667 12.900166 20.1474 12.900166 20.1474 21.846166 24.3763333 21.846166 24.3763333 0.00616595745"></polygon>
                            <path d="M27.84152,5.6501617 L27.84152,16.2010979 C27.84152,19.313566 30.4865867,21.8460766 33.7373867,21.8460766 L50.3544533,21.8460766 L50.3544533,17.7970979 L33.7373867,17.7970979 C32.8180533,17.7970979 32.0704533,17.0813106 32.0704533,16.2010979 L32.0704533,12.8965021 L49.40432,12.8965021 L49.40432,8.95386383 L32.0704533,8.95386383 L32.0704533,5.6501617 C32.0704533,4.76994894 32.8180533,4.0541617 33.7373867,4.0541617 L50.3544533,4.0541617 L50.3544533,0.00786382979 L33.7373867,0.00786382979 C30.4865867,0.00786382979 27.84152,2.53769362 27.84152,5.6501617" id="Fill-2"></path>
                            <path d="M102.385267,0.00580851064 L89.1692667,0.00580851064 C85.2651333,0.00580851064 82.0880667,3.04678723 82.0880667,6.78568085 L82.0880667,15.0721915 C82.0880667,18.8110851 85.2651333,21.8520638 89.1692667,21.8520638 L102.385267,21.8520638 C106.290333,21.8520638 109.469267,18.8110851 109.469267,15.0721915 L109.469267,6.78568085 C109.469267,3.04678723 106.290333,0.00580851064 102.385267,0.00580851064 L102.385267,0.00580851064 Z M105.240333,15.0587872 C105.240333,16.5645319 103.957933,17.7923617 102.385267,17.7923617 L89.1692667,17.7923617 C87.5966,17.7923617 86.3142,16.5645319 86.3142,15.0587872 L86.3142,6.78568085 C86.3142,5.27993617 87.5966,4.05210638 89.1692667,4.05210638 L102.385267,4.05210638 C103.957933,4.05210638 105.240333,5.27993617 105.240333,6.78568085 L105.240333,15.0587872 Z" id="Fill-4"></path>
                            <path d="M78.87628,6.45128936 C78.86228,2.86609787 75.7524133,0.000268085106 72.00788,0.000268085106 L55.9041467,0.000268085106 C54.8541467,0.000268085106 54.00388,0.814353191 54.00108,1.81877872 L54.00108,21.8465234 L58.2197467,21.8465234 L58.2197467,12.8969489 L69.24988,12.8969489 L74.7276133,21.8465234 L79.7461467,21.8465234 L74.1433467,12.6583532 C76.8929467,11.8263957 78.89028,9.35733191 78.87628,6.45128936 M72.1105467,8.95431064 L58.2272133,8.95431064 L58.2272133,4.05460851 L72.1105467,4.05460851 C73.51148,4.05460851 74.6501467,5.16001277 74.6501467,6.50133191 C74.6501467,7.84086383 73.51148,8.95431064 72.1105467,8.95431064" id="Fill-6"></path>
                            <path d="M137.17592,0.0222510638 L118.825653,0.0222510638 C117.08032,0.0222510638 115.665387,1.3734 115.665387,3.04088936 L115.665387,4.06318723 L134.125787,4.06229362 C134.416053,4.07033617 134.64472,4.29195319 134.64472,4.55914468 C134.64472,4.67710213 134.587787,4.81561277 134.49912,4.92284681 L122.70552,21.8479532 L128.043253,21.8479532 L139.46912,5.37680426 L139.46912,5.37591064 L139.470987,5.3741234 C139.630587,5.1006766 140.108453,4.50642128 140.26712,3.66910213 C140.31192,3.46625106 140.335253,3.25625106 140.335253,3.04088936 C140.335253,1.3734 138.921253,0.0222510638 137.17592,0.0222510638" id="Fill-9"></path>
                            <path d="M64.7885467,42.4105277 L57.9220133,42.4105277 C55.9200133,42.4105277 54.28948,40.851166 54.28948,38.9343574 L54.28948,31.1884851 L56.4585467,31.1884851 L56.4585467,38.9343574 C56.4585467,39.7073362 57.1156133,40.3829106 57.9220133,40.3829106 L64.7885467,40.3829106 L64.7885467,42.4105277 Z" id="Fill-11"></path>
                            <path d="M65.5284,31.1884851 L63.0952,31.1884851 L68.9714667,41.9136766 C69.1385333,42.2192936 69.4689333,42.4105277 69.8292,42.4105277 L71.0686667,42.4105277 C71.4252,42.4105277 71.7528,42.2237617 71.9217333,41.9235064 L77.9753333,31.1884851 L75.5272,31.1884851 L70.4554667,40.1827404 L65.5284,31.1884851 Z" id="Fill-13"></path>
                            <polygon id="Fill-16" points="49.0606667 42.4105277 51.2334667 42.4105277 51.2334667 31.1884851 49.0606667 31.1884851"></polygon>
                            <path d="M42.7727067,35.7719362 L36.61364,35.7710426 C35.9015067,35.7710426 35.32004,35.198234 35.3079067,34.5190851 C35.2957733,33.819383 35.9127067,33.2135106 36.6425733,33.2135106 L45.1079067,33.2135106 L45.1079067,32.120617 C45.1079067,31.6076809 44.6729733,31.1921489 44.13724,31.1921489 L36.6649733,31.1921489 C34.7899067,31.1921489 33.22564,32.7238085 33.19764,34.5190851 C33.1687067,36.3456383 34.71244,37.7924043 36.6117733,37.7924043 L42.77084,37.7915106 C43.4829733,37.7915106 44.06444,38.3678936 44.0765733,39.0470426 C44.0887067,39.7467447 43.4717733,40.3535106 42.7419067,40.3535106 L33.8967067,40.3535106 L33.8967067,41.4455106 C33.8967067,41.9584468 34.33164,42.3739787 34.8673733,42.3739787 L42.7195067,42.3739787 C44.5945733,42.3739787 46.15884,40.8423191 46.18684,39.0470426 C46.2157733,37.2204894 44.67204,35.7719362 42.7727067,35.7719362" id="Fill-17"></path>
                            <path d="M104.560773,42.4105277 L107.13864,42.4105277 L104.26024,37.6904426 C105.673307,37.2641872 106.69904,35.9952511 106.692507,34.502017 C106.684107,32.6620596 105.08624,31.1884851 103.163573,31.1884851 L94.8923733,31.1884851 C94.3529067,31.1884851 93.9151733,31.6066979 93.9151733,32.1232085 L93.91424,42.409634 L96.0749067,42.4105277 L96.0805067,37.8137617 L101.746773,37.8137617 L104.560773,42.4105277 Z M96.0851733,33.2715064 L103.216773,33.2715064 C103.93544,33.2715064 104.52064,33.8389532 104.52064,34.5279319 C104.52064,35.216017 103.93544,35.7879319 103.216773,35.7879319 L96.0851733,35.7879319 L96.0851733,33.2715064 Z" id="Fill-19"></path>
                            <path d="M82.4542133,33.2685574 L90.99328,33.2685574 L90.99328,31.188217 L82.4542133,31.188217 C80.7835467,31.188217 79.4255467,32.4893234 79.4255467,34.0888979 L79.4255467,39.5104723 C79.4255467,41.1100468 80.7835467,42.4102596 82.4542133,42.4102596 L90.99328,42.4102596 L90.99328,40.3308128 L82.4542133,40.3308128 C81.9819467,40.3308128 81.5974133,39.9626426 81.5974133,39.5104723 L81.5974133,37.8126 L90.5042133,37.8126 L90.5042133,35.7858766 L81.5974133,35.7858766 L81.5974133,34.0888979 C81.5974133,33.6367277 81.9819467,33.2685574 82.4542133,33.2685574" id="Fill-21"></path>
                        </g>
                    </g>
                </g>
            </g>
        </g>
    </g>
</svg>