<?xml version="1.0" encoding="UTF-8"?>
<svg width="136px" height="43px" viewBox="0 0 136 43" version="1.1" xmlns="http://www.w3.org/2000/svg" xmlns:xlink="http://www.w3.org/1999/xlink">
    <!-- Generator: Sketch 56.3 (81716) - https://sketch.com -->
    <title>Hero 7 Black Copy</title>
    <desc>Created with Sketch.</desc>
    <g id="Fall-2019-Launch" stroke="none" stroke-width="1" fill="none" fill-rule="evenodd">
        <g id="clp-1366" transform="translate(-766.000000, -2131.000000)" fill="#333333">
            <g id="module-3-compare" transform="translate(0.000000, 1730.000000)">
                <g id="4-Cameras" transform="translate(193.000000, 181.000000)">
                    <g id="hero7black" transform="translate(527.000000, 58.000000)">
                        <g id="logo-H7B" transform="translate(46.000000, 162.000000)">
                            <g id="logo" transform="translate(0.000000, 0.895833)">
                                <path d="M40.8339093,42.0692292 L32.753696,42.070125 C32.2332693,42.0692292 31.828896,41.6428125 31.828896,41.1286042 L31.828896,31.8235833 C31.8298027,31.309375 32.2332693,30.8928125 32.753696,30.8928125 L40.5147627,30.8928125 C42.3725227,30.8928125 43.930176,32.3942292 43.9183893,34.2288958 C43.9129493,35.0324583 43.617376,35.7688333 43.1295893,36.340375 C43.780576,36.9450625 44.188576,37.8041667 44.188576,38.7546458 C44.188576,40.5821458 42.6835093,42.0692292 40.8339093,42.0692292 L40.8339093,42.0692292 Z M33.920576,39.9783542 L40.837536,39.984625 C41.5302293,39.984625 42.0950827,39.4336875 42.0950827,38.748375 C42.0950827,38.0621667 41.5302293,37.4646458 40.8366293,37.4646458 L33.920576,37.4646458 L33.920576,39.9783542 Z M33.920576,35.4454375 L40.7251093,35.4454375 C41.3425493,35.4454375 41.8230827,34.8443333 41.8230827,34.2127708 C41.8230827,33.5265625 41.2582293,32.9693542 40.5646293,32.9693542 L33.923296,32.9693542 L33.920576,35.4454375 Z" id="Fill-1"></path>
                                <path d="M86.0978827,38.8285521 C86.018096,39.5255104 85.4178827,40.0692813 84.6916427,40.0692813 L78.627856,40.0692813 C77.847216,40.0692813 77.2125493,39.4421979 77.2125493,38.6708854 L77.2125493,34.3681979 C77.2125493,33.5968854 77.847216,32.9169479 78.627856,32.9169479 L84.6916427,32.9169479 C85.3997493,32.9169479 85.988176,33.4329479 86.0906293,34.1039271 L88.1959093,34.1039271 C88.085296,32.2889688 86.5557493,30.8923646 84.6916427,30.8923646 L78.6233227,30.8923646 C76.6875893,30.8923646 75.1127093,32.4484271 75.1127093,34.3619271 L75.1127093,38.6243021 C75.1127093,40.5369063 76.6875893,42.0938646 78.6233227,42.0938646 L84.6916427,42.0938646 C86.5747893,42.0938646 88.115216,40.6685938 88.1986293,38.8285521 L86.0978827,38.8285521 Z" id="Fill-3"></path>
                                <path d="M57.1459307,42.0935063 L50.5045973,42.0935063 C48.568864,42.0935063 46.991264,40.5374438 46.991264,38.6248396 L46.991264,30.8929021 L49.0901973,30.8929021 L49.0901973,38.6248396 C49.0901973,39.3952563 49.724864,40.0698188 50.5045973,40.0698188 L57.1459307,40.0698188 L57.1459307,42.0935063 Z" id="Fill-6"></path>
                                <path d="M61.575904,42.0935063 L62.8062507,39.8386938 L70.1094507,39.8386938 L71.3035307,42.0935063 L73.6708373,42.0935063 L67.954304,31.3255896 C67.791104,31.0192146 67.4692373,30.8266104 67.119264,30.8266104 L65.9133973,30.8266104 C65.5670507,30.8266104 65.247904,31.0147354 65.0828907,31.3157354 L59.1940907,42.0935063 L61.575904,42.0935063 Z M66.509984,33.0635063 L69.0921707,37.9225063 L63.8534507,37.9225063 L66.509984,33.0635063 Z" id="Fill-8"></path>
                                <polygon id="Fill-11" points="99.4704 30.8930812 93.1237333 36.0477062 93.1237333 30.8930812 91.02208 30.8930812 91.02208 42.0936854 93.1237333 42.0936854 93.1237333 38.7280396 95.3613867 36.9112896 100.51216 42.0936854 103.44976 42.0936854 96.9861333 35.5908313 102.771573 30.8930812"></polygon>
                                <polygon id="Fill-12" points="19.4208 0.00564375 19.4208 8.90574792 4.07637333 8.90574792 4.07637333 0.00564375 0 0.00564375 0 21.7322896 4.07637333 21.7322896 4.07637333 12.8330813 19.4208 12.8330813 19.4208 21.7322896 23.4971733 21.7322896 23.4971733 0.00564375"></polygon>
                                <path d="M26.8383307,5.62072708 L26.8383307,16.1163104 C26.8383307,19.2132063 29.3878773,21.7322896 32.522224,21.7322896 L48.5393973,21.7322896 L48.5393973,17.7037271 L32.522224,17.7037271 C31.635504,17.7037271 30.914704,16.9915396 30.914704,16.1163104 L30.914704,12.8294979 L47.623664,12.8294979 L47.623664,8.90753958 L30.914704,8.90753958 L30.914704,5.62072708 C30.914704,4.74460208 31.635504,4.03241458 32.522224,4.03241458 L48.5393973,4.03241458 L48.5393973,0.00743541667 L32.522224,0.00743541667 C29.3878773,0.00743541667 26.8383307,2.52383125 26.8383307,5.62072708" id="Fill-13"></path>
                                <path d="M98.6961067,0.00573333333 L85.9565333,0.00573333333 C82.1920533,0.00573333333 79.13024,3.0309625 79.13024,6.7504625 L79.13024,14.993025 C79.13024,18.712525 82.1920533,21.7377542 85.9565333,21.7377542 L98.6961067,21.7377542 C102.45968,21.7377542 105.524213,18.712525 105.524213,14.993025 L105.524213,6.7504625 C105.524213,3.0309625 102.45968,0.00573333333 98.6961067,0.00573333333 L98.6961067,0.00573333333 Z M101.44784,14.9804833 C101.44784,16.4783167 100.212053,17.6993375 98.6961067,17.6993375 L85.9565333,17.6993375 C84.4405867,17.6993375 83.2038933,16.4783167 83.2038933,14.9804833 L83.2038933,6.7504625 C83.2038933,5.25173333 84.4405867,4.0307125 85.9565333,4.0307125 L98.6961067,4.0307125 C100.212053,4.0307125 101.44784,5.25173333 101.44784,6.7504625 L101.44784,14.9804833 Z" id="Fill-15"></path>
                                <path d="M76.033792,6.41757083 C76.0210987,2.85125833 73.022752,-0.000179166667 69.413312,-0.000179166667 L53.8893653,-0.000179166667 C52.8775253,-0.000179166667 52.0578987,0.809654167 52.0551787,1.80940417 L52.0551787,21.7318417 L56.1215787,21.7318417 L56.1215787,12.8299458 L66.7540587,12.8299458 L72.035392,21.7318417 L76.8724587,21.7318417 L71.4714453,12.59255 C74.1225387,11.7639042 76.047392,9.308425 76.033792,6.41757083 M69.5121387,8.9079875 L56.128832,8.9079875 L56.128832,4.0328625 L69.5121387,4.0328625 C70.863072,4.0328625 71.9601387,5.13294583 71.9601387,6.4677375 C71.9601387,7.79984167 70.863072,8.9079875 69.5121387,8.9079875" id="Fill-17"></path>
                                <path d="M132.232981,0.0221270833 L114.543915,0.0221270833 C112.861141,0.0221270833 111.497515,1.36677292 111.497515,3.02496042 L111.497515,4.04173125 L129.292661,4.04173125 C129.572821,4.04889792 129.793141,4.27016875 129.793141,4.53533542 C129.793141,4.65268958 129.737835,4.79064792 129.652608,4.89725208 L118.283915,21.7335438 L123.429248,21.7335438 L134.443435,5.34875208 L134.443435,5.34785625 L134.445248,5.34606458 C134.599381,5.07373125 135.059968,4.48337708 135.212288,3.65025208 C135.255808,3.44868958 135.279381,3.23906458 135.279381,3.02496042 C135.279381,1.36677292 133.914848,0.0221270833 132.232981,0.0221270833" id="Fill-20"></path>
                            </g>
                        </g>
                    </g>
                </g>
            </g>
        </g>
    </g>
</svg>