<?xml version="1.0" encoding="UTF-8"?>
<svg width="142px" height="41px" viewBox="0 0 142 41" version="1.1" xmlns="http://www.w3.org/2000/svg" xmlns:xlink="http://www.w3.org/1999/xlink">
    <!-- Generator: Sketch 56.3 (81716) - https://sketch.com -->
    <title>logo-hero8blak</title>
    <desc>Created with Sketch.</desc>
    <g id="Fall-2019-Launch" stroke="none" stroke-width="1" fill="none" fill-rule="evenodd">
        <g id="clp-1366" transform="translate(-489.000000, -2133.000000)" fill="#333333">
            <g id="module-3-compare" transform="translate(0.000000, 1730.000000)">
                <g id="4-Cameras" transform="translate(193.000000, 181.000000)">
                    <g id="hero8black" transform="translate(264.000000, 48.000000)">
                        <g id="logo-hero8blak" transform="translate(32.000000, 174.000000)">
                            <g id="Group-23">
                                <path d="M36.3272619,16.5744681 L31.6753324,16.5744681 C30.2660539,16.5744681 29.1200472,17.6798484 29.1200472,19.099088 L29.1200472,22.0211866 C29.1200472,23.3190061 30.2660539,24.4255319 31.6753324,24.4255319 L36.3272619,24.4255319 C37.7365405,24.4255319 38.8825472,23.3190061 38.8825472,21.9604766 L38.8825472,19.0372325 C38.8825472,17.6798484 37.7365405,16.5744681 36.3272619,16.5744681 L36.3272619,16.5744681 Z M37.3779666,21.9604766 C37.3779666,22.5194668 36.9062217,22.9742191 36.3272619,22.9742191 L31.6753324,22.9742191 C31.0963727,22.9742191 30.6246277,22.5194668 30.6246277,21.9604766 L30.6246277,19.0372325 C30.6246277,18.4805332 31.0963727,18.0257809 31.6753324,18.0257809 L36.3272619,18.0257809 C36.9062217,18.0257809 37.3779666,18.4805332 37.3779666,19.0372325 L37.3779666,21.9604766 Z" id="Fill-1"></path>
                                <polygon id="Fill-3" points="7.26506954 16.5744681 8.70754717 16.5744681 8.70754717 24.4255319 7.26506954 24.4255319 7.26506954 21.2295439 2.16142535 21.2295439 2.16142535 24.4255319 0.72004717 24.4255319 0.72004717 16.5744681 2.16142535 16.5744681 2.16142535 19.8967343 7.26506954 19.8967343"></polygon>
                                <path d="M12.9998342,16.5744681 L18.4700472,16.5744681 L18.4700472,18.0299443 L12.9998342,18.0299443 C12.4323261,18.0299443 11.9684294,18.4817627 11.9684294,19.0405 L11.9684294,19.8556126 L18.2286796,19.8556126 L18.2286796,21.1892243 L11.9684294,21.1892243 L11.9684294,21.9606497 C11.9684294,22.5170876 12.4323261,22.9700557 12.9998342,22.9700557 L18.4700472,22.9700557 L18.4700472,24.4255319 L12.9998342,24.4255319 C11.6116764,24.4255319 10.4825472,23.319554 10.4825472,21.9606497 L10.4825472,19.0405 C10.4825472,17.680446 11.6116764,16.5744681 12.9998342,16.5744681" id="Fill-5"></path>
                                <path d="M27.923194,18.9012171 L27.923194,18.8875035 C27.923194,17.6109914 26.8862878,16.5744681 25.6110651,16.5744681 L19.3575472,16.5847533 L19.3575472,24.401533 L20.8607746,24.401533 L20.8607746,21.1776828 L24.5581184,21.1776828 L26.422258,24.4255319 L28.2325472,24.4255319 L26.3191403,21.1022577 C27.2494914,20.8028431 27.923194,19.928598 27.923194,18.9012171 M25.5686723,19.8474589 L20.8756694,19.8474589 L20.8756694,18.026972 L25.5686723,18.026972 C26.0670747,18.026972 26.4715254,18.4315247 26.4715254,18.9286444 L26.4715254,18.9435009 C26.4715254,19.4417634 26.0670747,19.8474589 25.5686723,19.8474589" id="Fill-7"></path>
                                <path d="M101.261935,24.4255319 L95.4619822,24.4255319 C95.0868313,24.4255319 94.7950472,24.1251614 94.7950472,23.7637961 L94.7950472,17.2269971 C94.7962381,16.8667827 95.0868313,16.5744681 95.4619822,16.5744681 L101.034463,16.5744681 C102.368333,16.5744681 103.48664,17.628642 103.478303,18.9164374 C103.47354,19.4803514 103.260358,19.9982316 102.9126,20.4010273 C103.378263,20.8256891 103.670047,21.4287318 103.670047,22.0973727 C103.670047,23.3805648 102.591042,24.4255319 101.261935,24.4255319 L101.261935,24.4255319 Z M96.2992239,22.9570538 L101.265508,22.9616572 C101.763327,22.9616572 102.169443,22.5726716 102.169443,22.0927693 C102.169443,21.6105653 101.763327,21.1905069 101.264317,21.1905069 L96.2992239,21.1905069 L96.2992239,22.9570538 Z M96.2992239,19.7715152 L101.185714,19.7715152 C101.627559,19.7715152 101.971745,19.3491551 101.971745,18.9060798 C101.971745,18.4238758 101.56682,18.0314377 101.070191,18.0314377 L96.3004149,18.0314377 L96.2992239,19.7715152 Z" id="Fill-9"></path>
                                <path d="M130.645998,22.1369302 C130.59313,22.6272628 130.184813,23.0073567 129.692132,23.0073567 L125.579711,23.0073567 C125.051036,23.0073567 124.621346,22.5675502 124.621346,22.0255431 L124.621346,19.0112031 C124.621346,18.4714927 125.051036,17.9949399 125.579711,17.9949399 L129.692132,17.9949399 C130.173564,17.9949399 130.570633,18.3555124 130.640374,18.8263236 L132.067797,18.8263236 C131.993558,17.553985 130.956454,16.5744681 129.692132,16.5744681 L125.577462,16.5744681 C124.264772,16.5744681 123.195047,17.6653721 123.195047,19.0066098 L123.195047,21.9933902 C123.195047,23.3357762 124.264772,24.4255319 125.577462,24.4255319 L129.692132,24.4255319 C130.968827,24.4255319 132.013805,23.4276418 132.070047,22.1369302 L130.645998,22.1369302 Z" id="Fill-11"></path>
                                <path d="M111.657547,24.4255319 L107.014258,24.4255319 C105.66243,24.4255319 104.557547,23.3334796 104.557547,21.9933902 L104.557547,16.5744681 L106.026473,16.5744681 L106.026473,21.9933902 C106.026473,22.5342489 106.468194,23.0062084 107.014258,23.0062084 L111.657547,23.0062084 L111.657547,24.4255319 Z" id="Fill-13"></path>
                                <path d="M114.15237,24.4255319 L114.982317,22.8546342 L119.908308,22.8546342 L120.71141,24.4255319 L122.307547,24.4255319 L118.451986,16.9215269 C118.343489,16.7080401 118.127613,16.5744681 117.890486,16.5744681 L117.076198,16.5744681 C116.843545,16.5744681 116.628788,16.7046151 116.516935,16.9158187 L112.545047,24.4255319 L114.15237,24.4255319 Z M117.479986,18.1328078 L119.219295,21.5189144 L115.688107,21.5189144 L117.479986,18.1328078 Z" id="Fill-15"></path>
                                <polygon id="Fill-17" points="134.459003 21.9730839 136.050263 20.7303726 139.708982 24.2768103 141.798836 24.2768103 137.204221 19.8252571 141.315565 16.6085641 138.96993 16.6085641 134.459003 20.1381781 134.459003 16.6085641 132.965576 16.6085641 132.965576 24.2768103 134.459003 24.2768103"></polygon>
                                <path d="M54.4502924,7.41634628 C52.7535826,7.41634628 51.1565475,8.24742075 51.1565475,10.6043304 L51.1565475,12.730386 C51.2304636,14.1594823 51.5317276,16.0579818 54.9520258,16.2184803 L76.1312201,16.2184803 C79.7105499,16.2184803 80.7599341,15.2774754 80.8976868,12.730386 L80.8976868,10.6043304 C80.8976868,7.74503843 78.8078779,7.41634628 77.1750046,7.41634628 L54.4502924,7.41634628 Z M54.2207046,24.085106 C51.4242133,24.085106 50.149721,25.4405489 50.1463612,27.9799431 L50.1463612,29.9729828 C50.1463612,33.0158587 52.7166246,33.4215022 54.7941142,33.4215022 L77.1940436,33.4215022 C79.2704133,33.4215022 81.9078731,33.0114615 81.9078731,29.9729828 L81.9067532,27.9799431 C81.8877142,25.4955141 80.5975427,24.085106 77.8436091,24.085106 L54.2207046,24.085106 Z M53.0066892,41.0001099 C46.2086505,41.0001099 42.6270808,36.9491715 42.605802,30.7106164 L42.6147615,27.7315002 C42.6774782,20.8454545 47.5660183,19.6746948 47.5660183,19.6746948 C47.5660183,19.6746948 43.9878085,17.7432162 43.9441308,13.2723433 C43.9441308,13.2723433 43.9385311,10.2481556 43.9385311,10.2151765 C43.9385311,3.56658064 47.2188368,0.1697286 54.6552415,0.1697286 L77.3463555,0.1697286 C85.7615883,0.1697286 88.1123433,4.5746432 88.1123433,10.2151765 L88.1089835,13.2723433 C88.023868,17.839955 84.4882159,19.6746948 84.4882159,19.6746948 C84.4882159,19.6746948 89.3588371,20.8311636 89.4327532,27.7315002 C89.4338731,27.8612182 89.455152,30.7106164 89.455152,30.7106164 C89.4316332,36.9480722 85.9340591,41.0001099 79.1371404,41.0001099 L53.0066892,41.0001099 Z" id="Fill-20"></path>
                            </g>
                        </g>
                    </g>
                </g>
            </g>
        </g>
    </g>
</svg>