<?xml version="1.0" encoding="UTF-8"?>
<svg width="116px" height="42px" viewBox="0 0 116 42" version="1.1" xmlns="http://www.w3.org/2000/svg" xmlns:xlink="http://www.w3.org/1999/xlink">
    <!-- Generator: Sketch 56.3 (81716) - https://sketch.com -->
    <title>logo-max</title>
    <desc>Created with Sketch.</desc>
    <defs>
        <polygon id="path-1" points="1.09303635e-06 0.0413225806 46.3519024 0.0413225806 46.3519024 31.5317935 1.09303635e-06 31.5317935"></polygon>
        <polygon id="path-3" points="0.0337554815 0.0413225806 43.0379661 0.0413225806 43.0379661 41.5483194 0.0337554815 41.5483194"></polygon>
        <polygon id="path-5" points="0.0885240497 0.0413225806 38.8565724 0.0413225806 38.8565724 31.531771 0.0885240497 31.531771"></polygon>
    </defs>
    <g id="Fall-2019-Launch" stroke="none" stroke-width="1" fill="none" fill-rule="evenodd">
        <g id="clp-1366" transform="translate(-232.000000, -2132.000000)">
            <g id="module-3-compare" transform="translate(0.000000, 1730.000000)">
                <g id="4-Cameras" transform="translate(193.000000, 181.000000)">
                    <g id="max">
                        <g id="logo-max" transform="translate(39.000000, 221.000000)">
                            <g id="Group-10">
                                <g id="Group-3" transform="translate(0.000000, 0.184484)">
                                    <mask id="mask-2" fill="white">
                                        <use xlink:href="#path-1"></use>
                                    </mask>
                                    <g id="Clip-2"></g>
                                    <path d="M7.57783488,30.9205355 L13.4787729,8.59663226 C13.5185636,8.68108387 20.6590829,23.3305032 20.6590829,23.3305032 C21.0619357,24.3172774 21.8867496,24.9409548 22.7891217,24.9409548 L27.8241062,24.9409548 C28.7264783,24.9409548 29.5510674,24.3172774 29.9539202,23.3305032 C29.9539202,23.3305032 37.0946643,8.68108387 37.134455,8.59663226 L40.9723465,25.3404065 C41.1013853,25.9022129 41.8580829,25.9972774 42.1206566,25.484471 L46.1660442,17.5821484 C46.3470132,17.2289871 46.3978194,16.8227613 46.3096953,16.4355032 L43.1005868,2.33930968 C42.7946256,0.994858065 41.6036023,0.0412774194 40.230486,0.0412774194 L35.8038271,0.0412774194 C34.5307496,0.0412774194 33.3624318,0.923503226 32.7696178,2.33253548 L25.3065016,16.9318258 L17.8436101,2.33253548 C17.2505713,0.923503226 16.0824783,0.0412774194 14.8094008,0.0412774194 L10.3254163,0.0412774194 C8.97860233,0.0412774194 7.80354031,0.959180645 7.47172636,2.27043871 L0.0203,30.7211484 C-0.0837852713,31.1321161 0.225548062,31.5317935 0.647734109,31.5317935 L6.78651705,31.5317935 C7.1578969,31.5317935 7.48251705,31.2809226 7.57783488,30.9205355" id="Fill-1" fill="#333333" mask="url(#mask-2)"></path>
                                </g>
                                <g id="Group-6" transform="translate(72.612403, 0.184484)">
                                    <mask id="mask-4" fill="white">
                                        <use xlink:href="#path-3"></use>
                                    </mask>
                                    <g id="Clip-5"></g>
                                    <path d="M42.8808837,30.3846742 L30.733031,15.2786742 L42.7965814,1.21477097 C43.1913411,0.754577419 42.8660465,0.0412548387 42.2608682,0.0412548387 L35.857938,0.0412548387 C35.4683488,0.0412548387 35.0978682,0.210609677 34.841814,0.505512903 L26.5410698,10.0666097 L18.8437054,0.494448387 C18.6132791,0.2079 18.2659535,0.0412548387 17.8992946,0.0412548387 L11.3466434,0.0412548387 C10.7574264,0.0412548387 10.4310078,0.726803226 10.8005891,1.18767419 L22.0613566,15.2269645 L0.204573643,40.4025774 C-0.183666667,40.8499 0.132635659,41.5483194 0.723651163,41.5483194 L7.60069767,41.5483194 C7.98106977,41.5483194 8.34233333,41.3819 8.59051938,41.0926419 L26.272876,20.4780935 L34.7741473,31.0772226 C35.0047984,31.3646742 35.3523488,31.531771 35.7196822,31.531771 L42.3355039,31.531771 C42.9249457,31.531771 43.2513643,30.8453194 42.8808837,30.3846742" id="Fill-4" fill="#333333" mask="url(#mask-4)"></path>
                                </g>
                                <g id="Group-9" transform="translate(43.837209, 0.184484)">
                                    <mask id="mask-6" fill="white">
                                        <use xlink:href="#path-5"></use>
                                    </mask>
                                    <g id="Clip-8"></g>
                                    <path d="M14.3730744,18.0129645 L18.8559349,8.85854516 C19.3487101,7.86160968 19.8106868,7.36280323 20.562214,7.36280323 L22.7502527,7.36280323 C23.696462,7.36280323 24.2303767,8.81925484 24.2303767,8.81925484 L28.7957411,18.0129645 L14.3730744,18.0129645 Z M33.526338,27.5383839 C33.752493,27.9936097 34.3666636,28.0730935 34.700276,27.6899 L38.6089814,23.2031258 C38.8791984,22.8926419 38.9336016,22.4482548 38.7456636,22.0815452 L28.6298341,2.34019032 C27.9097798,0.926867742 26.4858574,0.0412548387 24.9340202,0.0412548387 L18.2795318,0.0412548387 C16.7303922,0.0412548387 15.3091674,0.923480645 14.5877643,2.33273871 L0.167570543,30.4993839 C-0.0738713178,30.9708677 0.266934884,31.531771 0.794779845,31.531771 L7.1044155,31.531771 C7.50142326,31.531771 7.86358605,31.3050613 8.03871008,30.9476097 L10.9802992,24.9409323 L32.2364,24.9409323 L33.526338,27.5383839 Z" id="Fill-7" fill="#333333" mask="url(#mask-6)"></path>
                                </g>
                            </g>
                        </g>
                    </g>
                </g>
            </g>
        </g>
    </g>
</svg>